<mxfile host="app.diagrams.net" modified="2024-03-26T22:34:48.413Z" agent="Mozilla/5.0 (Windows NT 10.0; Win64; x64) AppleWebKit/537.36 (KHTML, like Gecko) Chrome/123.0.0.0 Safari/537.36" etag="b9fQKIAYCz8YZSpnG-8b" version="24.0.8" type="device">
  <diagram name="Page-1" id="ideoOnJJ-zIamgimS59t">
    <mxGraphModel dx="1050" dy="530" grid="1" gridSize="10" guides="1" tooltips="1" connect="1" arrows="1" fold="1" page="1" pageScale="1" pageWidth="850" pageHeight="1100" math="0" shadow="0">
      <root>
        <mxCell id="0" />
        <mxCell id="1" parent="0" />
        <mxCell id="5Zu8NqSR7JmXWHVJMjPD-5" value="" style="edgeStyle=orthogonalEdgeStyle;rounded=0;orthogonalLoop=1;jettySize=auto;html=1;" parent="1" source="5Zu8NqSR7JmXWHVJMjPD-2" target="5Zu8NqSR7JmXWHVJMjPD-4" edge="1">
          <mxGeometry relative="1" as="geometry" />
        </mxCell>
        <mxCell id="5Zu8NqSR7JmXWHVJMjPD-2" value="Start" style="rounded=1;whiteSpace=wrap;html=1;fillColor=#d5e8d4;strokeColor=#82b366;" parent="1" vertex="1">
          <mxGeometry x="320" y="120" width="120" height="60" as="geometry" />
        </mxCell>
        <mxCell id="5Zu8NqSR7JmXWHVJMjPD-7" value="" style="edgeStyle=orthogonalEdgeStyle;rounded=0;orthogonalLoop=1;jettySize=auto;html=1;" parent="1" source="5Zu8NqSR7JmXWHVJMjPD-4" target="5Zu8NqSR7JmXWHVJMjPD-6" edge="1">
          <mxGeometry relative="1" as="geometry" />
        </mxCell>
        <mxCell id="5Zu8NqSR7JmXWHVJMjPD-15" value="YES" style="edgeLabel;html=1;align=center;verticalAlign=middle;resizable=0;points=[];" parent="5Zu8NqSR7JmXWHVJMjPD-7" vertex="1" connectable="0">
          <mxGeometry x="0.5333" y="2" relative="1" as="geometry">
            <mxPoint x="18" y="-8" as="offset" />
          </mxGeometry>
        </mxCell>
        <mxCell id="5Zu8NqSR7JmXWHVJMjPD-13" value="" style="edgeStyle=orthogonalEdgeStyle;rounded=0;orthogonalLoop=1;jettySize=auto;html=1;" parent="1" source="5Zu8NqSR7JmXWHVJMjPD-4" target="5Zu8NqSR7JmXWHVJMjPD-12" edge="1">
          <mxGeometry relative="1" as="geometry" />
        </mxCell>
        <mxCell id="5Zu8NqSR7JmXWHVJMjPD-14" value="NO" style="edgeLabel;html=1;align=center;verticalAlign=middle;resizable=0;points=[];" parent="5Zu8NqSR7JmXWHVJMjPD-13" vertex="1" connectable="0">
          <mxGeometry x="-0.4733" y="7" relative="1" as="geometry">
            <mxPoint x="4" y="-3" as="offset" />
          </mxGeometry>
        </mxCell>
        <mxCell id="5Zu8NqSR7JmXWHVJMjPD-4" value="Check file exists?" style="rhombus;whiteSpace=wrap;html=1;rounded=1;fillColor=#dae8fc;strokeColor=#6c8ebf;" parent="1" vertex="1">
          <mxGeometry x="325" y="210" width="110" height="110" as="geometry" />
        </mxCell>
        <mxCell id="5Zu8NqSR7JmXWHVJMjPD-9" value="" style="edgeStyle=orthogonalEdgeStyle;rounded=0;orthogonalLoop=1;jettySize=auto;html=1;" parent="1" source="5Zu8NqSR7JmXWHVJMjPD-6" target="5Zu8NqSR7JmXWHVJMjPD-8" edge="1">
          <mxGeometry relative="1" as="geometry" />
        </mxCell>
        <mxCell id="5Zu8NqSR7JmXWHVJMjPD-19" value="YES" style="edgeLabel;html=1;align=center;verticalAlign=middle;resizable=0;points=[];" parent="5Zu8NqSR7JmXWHVJMjPD-9" vertex="1" connectable="0">
          <mxGeometry x="0.5" y="3" relative="1" as="geometry">
            <mxPoint x="12" y="-10" as="offset" />
          </mxGeometry>
        </mxCell>
        <mxCell id="5Zu8NqSR7JmXWHVJMjPD-17" value="" style="edgeStyle=orthogonalEdgeStyle;rounded=0;orthogonalLoop=1;jettySize=auto;html=1;" parent="1" source="5Zu8NqSR7JmXWHVJMjPD-6" target="5Zu8NqSR7JmXWHVJMjPD-16" edge="1">
          <mxGeometry relative="1" as="geometry" />
        </mxCell>
        <mxCell id="5Zu8NqSR7JmXWHVJMjPD-18" value="NO" style="edgeLabel;html=1;align=center;verticalAlign=middle;resizable=0;points=[];" parent="5Zu8NqSR7JmXWHVJMjPD-17" vertex="1" connectable="0">
          <mxGeometry x="0.2267" relative="1" as="geometry">
            <mxPoint x="-17" y="-10" as="offset" />
          </mxGeometry>
        </mxCell>
        <mxCell id="5Zu8NqSR7JmXWHVJMjPD-6" value="Check file is .txt" style="rhombus;whiteSpace=wrap;html=1;rounded=1;fillColor=#dae8fc;strokeColor=#6c8ebf;" parent="1" vertex="1">
          <mxGeometry x="325" y="350" width="110" height="110" as="geometry" />
        </mxCell>
        <mxCell id="5Zu8NqSR7JmXWHVJMjPD-11" value="" style="edgeStyle=orthogonalEdgeStyle;rounded=0;orthogonalLoop=1;jettySize=auto;html=1;" parent="1" source="5Zu8NqSR7JmXWHVJMjPD-8" target="5Zu8NqSR7JmXWHVJMjPD-10" edge="1">
          <mxGeometry relative="1" as="geometry" />
        </mxCell>
        <mxCell id="5Zu8NqSR7JmXWHVJMjPD-32" value="NO" style="edgeLabel;html=1;align=center;verticalAlign=middle;resizable=0;points=[];" parent="5Zu8NqSR7JmXWHVJMjPD-11" vertex="1" connectable="0">
          <mxGeometry x="-0.08" y="3" relative="1" as="geometry">
            <mxPoint x="7" as="offset" />
          </mxGeometry>
        </mxCell>
        <mxCell id="5Zu8NqSR7JmXWHVJMjPD-21" value="" style="edgeStyle=orthogonalEdgeStyle;rounded=0;orthogonalLoop=1;jettySize=auto;html=1;" parent="1" source="5Zu8NqSR7JmXWHVJMjPD-8" target="5Zu8NqSR7JmXWHVJMjPD-20" edge="1">
          <mxGeometry relative="1" as="geometry" />
        </mxCell>
        <mxCell id="5Zu8NqSR7JmXWHVJMjPD-22" value="NO" style="edgeLabel;html=1;align=center;verticalAlign=middle;resizable=0;points=[];" parent="5Zu8NqSR7JmXWHVJMjPD-21" vertex="1" connectable="0">
          <mxGeometry x="-0.2067" y="2" relative="1" as="geometry">
            <mxPoint x="-4" y="-8" as="offset" />
          </mxGeometry>
        </mxCell>
        <mxCell id="5Zu8NqSR7JmXWHVJMjPD-31" value="YES" style="edgeLabel;html=1;align=center;verticalAlign=middle;resizable=0;points=[];" parent="5Zu8NqSR7JmXWHVJMjPD-21" vertex="1" connectable="0">
          <mxGeometry x="-0.3422" y="10" relative="1" as="geometry">
            <mxPoint as="offset" />
          </mxGeometry>
        </mxCell>
        <mxCell id="5Zu8NqSR7JmXWHVJMjPD-8" value="File is empty?" style="rhombus;whiteSpace=wrap;html=1;rounded=1;fillColor=#dae8fc;strokeColor=#6c8ebf;" parent="1" vertex="1">
          <mxGeometry x="325" y="500" width="110" height="110" as="geometry" />
        </mxCell>
        <mxCell id="5Zu8NqSR7JmXWHVJMjPD-38" value="" style="edgeStyle=orthogonalEdgeStyle;rounded=0;orthogonalLoop=1;jettySize=auto;html=1;" parent="1" source="5Zu8NqSR7JmXWHVJMjPD-10" target="5Zu8NqSR7JmXWHVJMjPD-37" edge="1">
          <mxGeometry relative="1" as="geometry" />
        </mxCell>
        <mxCell id="5Zu8NqSR7JmXWHVJMjPD-10" value="Open File" style="whiteSpace=wrap;html=1;rounded=1;fillColor=#b0e3e6;strokeColor=#0e8088;" parent="1" vertex="1">
          <mxGeometry x="320" y="650" width="120" height="60" as="geometry" />
        </mxCell>
        <mxCell id="5Zu8NqSR7JmXWHVJMjPD-12" value="Raise Exception" style="whiteSpace=wrap;html=1;rounded=1;fillColor=#ffe6cc;strokeColor=#d79b00;" parent="1" vertex="1">
          <mxGeometry x="480" y="235" width="120" height="60" as="geometry" />
        </mxCell>
        <mxCell id="5Zu8NqSR7JmXWHVJMjPD-16" value="Raise Exception" style="whiteSpace=wrap;html=1;rounded=1;fillColor=#ffe6cc;strokeColor=#d79b00;" parent="1" vertex="1">
          <mxGeometry x="480" y="375" width="120" height="60" as="geometry" />
        </mxCell>
        <mxCell id="5Zu8NqSR7JmXWHVJMjPD-20" value="Raise Exception" style="whiteSpace=wrap;html=1;rounded=1;fillColor=#ffe6cc;strokeColor=#d79b00;" parent="1" vertex="1">
          <mxGeometry x="480" y="525" width="120" height="60" as="geometry" />
        </mxCell>
        <mxCell id="5Zu8NqSR7JmXWHVJMjPD-26" value="" style="edgeStyle=orthogonalEdgeStyle;rounded=0;orthogonalLoop=1;jettySize=auto;html=1;" parent="1" source="5Zu8NqSR7JmXWHVJMjPD-23" target="5Zu8NqSR7JmXWHVJMjPD-25" edge="1">
          <mxGeometry relative="1" as="geometry" />
        </mxCell>
        <mxCell id="5Zu8NqSR7JmXWHVJMjPD-23" value="Removing Invalid characters and white spaces" style="whiteSpace=wrap;html=1;fillColor=#b0e3e6;strokeColor=#0e8088;rounded=1;" parent="1" vertex="1">
          <mxGeometry x="320" y="830" width="120" height="60" as="geometry" />
        </mxCell>
        <mxCell id="5Zu8NqSR7JmXWHVJMjPD-28" value="" style="edgeStyle=orthogonalEdgeStyle;rounded=0;orthogonalLoop=1;jettySize=auto;html=1;" parent="1" source="5Zu8NqSR7JmXWHVJMjPD-25" target="5Zu8NqSR7JmXWHVJMjPD-27" edge="1">
          <mxGeometry relative="1" as="geometry" />
        </mxCell>
        <mxCell id="5Zu8NqSR7JmXWHVJMjPD-25" value="convert into list to collect words" style="whiteSpace=wrap;html=1;fillColor=#b0e3e6;strokeColor=#0e8088;rounded=1;" parent="1" vertex="1">
          <mxGeometry x="320" y="914" width="120" height="60" as="geometry" />
        </mxCell>
        <mxCell id="5Zu8NqSR7JmXWHVJMjPD-46" value="" style="edgeStyle=orthogonalEdgeStyle;rounded=0;orthogonalLoop=1;jettySize=auto;html=1;" parent="1" source="5Zu8NqSR7JmXWHVJMjPD-27" target="5Zu8NqSR7JmXWHVJMjPD-45" edge="1">
          <mxGeometry relative="1" as="geometry" />
        </mxCell>
        <mxCell id="5Zu8NqSR7JmXWHVJMjPD-27" value="Store in dict word and frequency" style="whiteSpace=wrap;html=1;fillColor=#b0e3e6;strokeColor=#0e8088;rounded=1;" parent="1" vertex="1">
          <mxGeometry x="320" y="1000" width="120" height="60" as="geometry" />
        </mxCell>
        <mxCell id="5Zu8NqSR7JmXWHVJMjPD-44" value="" style="edgeStyle=orthogonalEdgeStyle;rounded=0;orthogonalLoop=1;jettySize=auto;html=1;" parent="1" target="5Zu8NqSR7JmXWHVJMjPD-43" edge="1">
          <mxGeometry relative="1" as="geometry">
            <mxPoint x="380" y="1160" as="sourcePoint" />
          </mxGeometry>
        </mxCell>
        <mxCell id="5Zu8NqSR7JmXWHVJMjPD-50" value="NO" style="edgeLabel;html=1;align=center;verticalAlign=middle;resizable=0;points=[];" parent="5Zu8NqSR7JmXWHVJMjPD-44" vertex="1" connectable="0">
          <mxGeometry x="0.1207" y="4" relative="1" as="geometry">
            <mxPoint x="7" as="offset" />
          </mxGeometry>
        </mxCell>
        <mxCell id="5Zu8NqSR7JmXWHVJMjPD-39" style="edgeStyle=orthogonalEdgeStyle;rounded=0;orthogonalLoop=1;jettySize=auto;html=1;exitX=0.5;exitY=1;exitDx=0;exitDy=0;entryX=0.5;entryY=0;entryDx=0;entryDy=0;" parent="1" source="5Zu8NqSR7JmXWHVJMjPD-37" target="5Zu8NqSR7JmXWHVJMjPD-23" edge="1">
          <mxGeometry relative="1" as="geometry" />
        </mxCell>
        <mxCell id="5Zu8NqSR7JmXWHVJMjPD-37" value="Read line from file" style="whiteSpace=wrap;html=1;fillColor=#b0e3e6;strokeColor=#0e8088;rounded=1;" parent="1" vertex="1">
          <mxGeometry x="320" y="740" width="120" height="60" as="geometry" />
        </mxCell>
        <mxCell id="5Zu8NqSR7JmXWHVJMjPD-41" value="" style="edgeStyle=elbowEdgeStyle;elbow=vertical;endArrow=classic;html=1;curved=0;rounded=0;endSize=8;startSize=8;exitX=0;exitY=0.5;exitDx=0;exitDy=0;entryX=0;entryY=0.5;entryDx=0;entryDy=0;dashed=1;strokeWidth=2;" parent="1" source="5Zu8NqSR7JmXWHVJMjPD-27" target="5Zu8NqSR7JmXWHVJMjPD-37" edge="1">
          <mxGeometry width="50" height="50" relative="1" as="geometry">
            <mxPoint x="280" y="940" as="sourcePoint" />
            <mxPoint x="330" y="890" as="targetPoint" />
            <Array as="points">
              <mxPoint x="270" y="910" />
              <mxPoint x="240" y="930" />
            </Array>
          </mxGeometry>
        </mxCell>
        <mxCell id="5Zu8NqSR7JmXWHVJMjPD-42" value="" style="edgeStyle=elbowEdgeStyle;elbow=horizontal;endArrow=classic;html=1;curved=0;rounded=0;endSize=8;startSize=8;exitX=1;exitY=0.5;exitDx=0;exitDy=0;entryX=1;entryY=0.5;entryDx=0;entryDy=0;dashed=1;strokeWidth=2;" parent="1" source="5Zu8NqSR7JmXWHVJMjPD-37" target="5Zu8NqSR7JmXWHVJMjPD-27" edge="1">
          <mxGeometry width="50" height="50" relative="1" as="geometry">
            <mxPoint x="280" y="940" as="sourcePoint" />
            <mxPoint x="330" y="890" as="targetPoint" />
            <Array as="points">
              <mxPoint x="480" y="890" />
              <mxPoint x="520" y="890" />
            </Array>
          </mxGeometry>
        </mxCell>
        <mxCell id="5Zu8NqSR7JmXWHVJMjPD-43" value="Display word count frequency histogram" style="whiteSpace=wrap;html=1;fillColor=#b0e3e6;strokeColor=#0e8088;rounded=1;" parent="1" vertex="1">
          <mxGeometry x="320" y="1220" width="120" height="60" as="geometry" />
        </mxCell>
        <mxCell id="5Zu8NqSR7JmXWHVJMjPD-48" value="" style="edgeStyle=orthogonalEdgeStyle;rounded=0;orthogonalLoop=1;jettySize=auto;html=1;" parent="1" source="5Zu8NqSR7JmXWHVJMjPD-45" target="5Zu8NqSR7JmXWHVJMjPD-47" edge="1">
          <mxGeometry relative="1" as="geometry" />
        </mxCell>
        <mxCell id="5Zu8NqSR7JmXWHVJMjPD-49" value="YES" style="edgeLabel;html=1;align=center;verticalAlign=middle;resizable=0;points=[];" parent="5Zu8NqSR7JmXWHVJMjPD-48" vertex="1" connectable="0">
          <mxGeometry x="-0.0359" y="2" relative="1" as="geometry">
            <mxPoint y="-11" as="offset" />
          </mxGeometry>
        </mxCell>
        <mxCell id="5Zu8NqSR7JmXWHVJMjPD-45" value="Check if dict empty" style="rhombus;whiteSpace=wrap;html=1;fillColor=#dae8fc;strokeColor=#6c8ebf;rounded=1;" parent="1" vertex="1">
          <mxGeometry x="335" y="1088" width="90" height="90" as="geometry" />
        </mxCell>
        <mxCell id="5Zu8NqSR7JmXWHVJMjPD-47" value="Raise Exception" style="whiteSpace=wrap;html=1;fillColor=#ffe6cc;strokeColor=#d79b00;rounded=1;" parent="1" vertex="1">
          <mxGeometry x="490" y="1103" width="120" height="60" as="geometry" />
        </mxCell>
      </root>
    </mxGraphModel>
  </diagram>
</mxfile>
